STARTFONT 2.1
COMMENT Copyright (C) 1990-1991 EWT Consulting
COMMENT Portions Copyright (C) 1994-1995 Cronyx Ltd.
COMMENT Changes Copyright (C) 1996-1997 by Andrey A. Chernov, Moscow, Russia.
COMMENT Modified by Serge Vakulenko, <vak@cronyx.ru>
COMMENT Changes 1999 by Serge Winitzki.
COMMENT This software may be used, modified, copied, distributed, and sold,
COMMENT in both source and binary form provided that the copyright
COMMENT and these terms are retained. Under no circumstances is the author
COMMENT responsible for the proper functioning of this software, nor does
COMMENT the author assume any responsibility for damages incurred with its use.
FONT -Cronyx-Courier-Medium-R-Normal--20-140-100-100-M-120-KOI8-C
SIZE 14 96 96
FONTBOUNDINGBOX 12 18 0 -4
STARTPROPERTIES 23
DEFAULT_CHAR 32
FONT_ASCENT 16
FONT_DESCENT 4
SPACING "M"
FONTNAME_REGISTRY ""
FOUNDRY "Cronyx"
FAMILY_NAME "Courier"
WEIGHT_NAME "Medium"
SLANT "R"
SETWIDTH_NAME "Normal"
ADD_STYLE_NAME ""
AVERAGE_WIDTH 120
CHARSET_REGISTRY "KOI8"
CHARSET_ENCODING "C"
PIXEL_SIZE 20
POINT_SIZE 140
RESOLUTION_X 100
RESOLUTION_Y 100
COPYRIGHT "Copyright (C) 1990, 1991 EWT Consulting, Portions Copyright (C) 1994 Cronyx Ltd., Portions Copyright (C) 1996-1997 by Andrey A. Chernov, Moscow, Russia."
_XMBDFED_INFO "Edited with xmbdfed 3.8."
_XFREE86_GLYPH_RANGES "3_10 26_27 30_255"
X_HEIGHT 9
CAP_HEIGHT 12
ENDPROPERTIES
CHARS 236
STARTCHAR multi
ENCODING 3
SWIDTH 642 0
DWIDTH 12 0
BBX 7 7 2 2
BITMAP
82
44
28
10
28
44
82
ENDCHAR
STARTCHAR divide
ENCODING 4
SWIDTH 642 0
DWIDTH 12 0
BBX 9 9 2 1
BITMAP
0800
0800
0000
0000
FF80
0000
0000
0800
0800
ENDCHAR
STARTCHAR promille
ENCODING 5
SWIDTH 642 0
DWIDTH 12 0
BBX 11 12 1 0
BITMAP
7080
8900
8A00
8C00
7800
1000
2000
5DC0
A220
2220
2220
1DC0
ENDCHAR
STARTCHAR approx
ENCODING 6
SWIDTH 642 0
DWIDTH 12 0
BBX 9 7 1 1
BITMAP
7080
8880
8700
0000
7080
8880
8700
ENDCHAR
STARTCHAR degree
ENCODING 7
SWIDTH 642 0
DWIDTH 12 0
BBX 9 13 2 -4
BITMAP
C300
4100
4100
4100
4100
4100
4100
4300
7D80
4000
4000
4000
C000
ENDCHAR
STARTCHAR plusminus
ENCODING 8
SWIDTH 642 0
DWIDTH 12 0
BBX 7 8 2 0
BITMAP
10
10
10
FE
10
10
10
FE
ENDCHAR
STARTCHAR pilcrow
ENCODING 9
SWIDTH 642 0
DWIDTH 12 0
BBX 10 12 1 0
BITMAP
3FC0
7900
F900
F900
F900
7900
3900
0900
0900
0900
0900
19C0
ENDCHAR
STARTCHAR ddagger
ENCODING 10
SWIDTH 642 0
DWIDTH 12 0
BBX 9 12 2 0
BITMAP
0800
1C00
4900
FF80
4900
0800
0800
4900
FF80
4900
1C00
0800
ENDCHAR
STARTCHAR lessequal
ENCODING 26
SWIDTH 642 0
DWIDTH 12 0
BBX 5 10 4 0
BITMAP
08
10
20
40
80
40
20
10
08
F8
ENDCHAR
STARTCHAR greaterequal
ENCODING 27
SWIDTH 642 0
DWIDTH 12 0
BBX 5 10 4 0
BITMAP
80
40
20
10
08
10
20
40
80
F8
ENDCHAR
STARTCHAR currency
ENCODING 30
SWIDTH 642 0
DWIDTH 12 0
BBX 9 9 2 0
BITMAP
8080
5D00
2200
4100
4100
4100
2200
5D00
8080
ENDCHAR
STARTCHAR twosuperior
ENCODING 31
SWIDTH 642 0
DWIDTH 12 0
BBX 5 6 4 7
BITMAP
70
88
08
70
80
F8
ENDCHAR
STARTCHAR space
ENCODING 32
SWIDTH 642 0
DWIDTH 12 0
BBX 0 0 0 0
BITMAP
ENDCHAR
STARTCHAR exclam
ENCODING 33
SWIDTH 642 0
DWIDTH 12 0
BBX 1 12 6 0
BITMAP
80
80
80
80
80
80
80
80
00
00
80
80
ENDCHAR
STARTCHAR quotedbl
ENCODING 34
SWIDTH 642 0
DWIDTH 12 0
BBX 5 5 4 7
BITMAP
88
88
88
88
88
ENDCHAR
STARTCHAR numbersign
ENCODING 35
SWIDTH 642 0
DWIDTH 12 0
BBX 9 12 2 0
BITMAP
1100
1100
1100
7F80
2200
2200
2200
2200
FF00
4400
4400
4400
ENDCHAR
STARTCHAR dollar
ENCODING 36
SWIDTH 642 0
DWIDTH 12 0
BBX 7 15 3 -2
BITMAP
10
10
7A
86
82
80
40
38
04
02
82
C2
BC
10
10
ENDCHAR
STARTCHAR percent
ENCODING 37
SWIDTH 642 0
DWIDTH 12 0
BBX 11 12 1 0
BITMAP
7000
8840
8880
8900
7200
0400
0400
09C0
1220
2220
4220
01C0
ENDCHAR
STARTCHAR ampersand
ENCODING 38
SWIDTH 642 0
DWIDTH 12 0
BBX 10 12 2 0
BITMAP
3C00
4200
4000
4000
2000
5000
4800
8480
8280
8100
8280
7C40
ENDCHAR
STARTCHAR quotesingle
ENCODING 39
SWIDTH 642 0
DWIDTH 12 0
BBX 1 5 6 7
BITMAP
80
80
80
80
80
ENDCHAR
STARTCHAR parenleft
ENCODING 40
SWIDTH 642 0
DWIDTH 12 0
BBX 3 15 5 -3
BITMAP
20
40
40
80
80
80
80
80
80
80
80
80
40
40
20
ENDCHAR
STARTCHAR parenright
ENCODING 41
SWIDTH 642 0
DWIDTH 12 0
BBX 3 15 5 -3
BITMAP
80
40
40
20
20
20
20
20
20
20
20
20
40
40
80
ENDCHAR
STARTCHAR asterisk
ENCODING 42
SWIDTH 642 0
DWIDTH 12 0
BBX 7 6 3 6
BITMAP
10
92
7C
38
28
44
ENDCHAR
STARTCHAR plus
ENCODING 43
SWIDTH 642 0
DWIDTH 12 0
BBX 9 9 2 1
BITMAP
0800
0800
0800
0800
FF80
0800
0800
0800
0800
ENDCHAR
STARTCHAR comma
ENCODING 44
SWIDTH 642 0
DWIDTH 12 0
BBX 2 3 5 -1
BITMAP
40
40
80
ENDCHAR
STARTCHAR hyphen
ENCODING 45
SWIDTH 642 0
DWIDTH 12 0
BBX 7 1 2 4
BITMAP
FE
ENDCHAR
STARTCHAR period
ENCODING 46
SWIDTH 642 0
DWIDTH 12 0
BBX 1 2 6 0
BITMAP
80
80
ENDCHAR
STARTCHAR slash
ENCODING 47
SWIDTH 642 0
DWIDTH 12 0
BBX 11 11 1 0
BITMAP
0020
0040
0080
0100
0200
0400
0800
1000
2000
4000
8000
ENDCHAR
STARTCHAR zero
ENCODING 48
SWIDTH 642 0
DWIDTH 12 0
BBX 7 12 3 0
BITMAP
38
44
82
82
82
82
82
82
82
82
44
38
ENDCHAR
STARTCHAR one
ENCODING 49
SWIDTH 642 0
DWIDTH 12 0
BBX 7 12 3 0
BITMAP
30
D0
10
10
10
10
10
10
10
10
10
FE
ENDCHAR
STARTCHAR two
ENCODING 50
SWIDTH 642 0
DWIDTH 12 0
BBX 7 12 3 0
BITMAP
38
44
82
02
02
04
08
10
20
42
82
FE
ENDCHAR
STARTCHAR three
ENCODING 51
SWIDTH 642 0
DWIDTH 12 0
BBX 7 12 3 0
BITMAP
78
84
02
02
04
18
04
02
02
02
84
78
ENDCHAR
STARTCHAR four
ENCODING 52
SWIDTH 642 0
DWIDTH 12 0
BBX 7 12 3 0
BITMAP
04
0C
0C
14
24
24
44
84
FE
04
04
1E
ENDCHAR
STARTCHAR five
ENCODING 53
SWIDTH 642 0
DWIDTH 12 0
BBX 7 12 3 0
BITMAP
FC
80
80
80
F8
84
02
02
02
02
84
78
ENDCHAR
STARTCHAR six
ENCODING 54
SWIDTH 642 0
DWIDTH 12 0
BBX 7 12 3 0
BITMAP
0E
30
40
40
80
B8
C4
82
82
82
44
38
ENDCHAR
STARTCHAR seven
ENCODING 55
SWIDTH 642 0
DWIDTH 12 0
BBX 7 12 3 0
BITMAP
FE
82
82
04
04
08
08
10
10
20
20
20
ENDCHAR
STARTCHAR eight
ENCODING 56
SWIDTH 642 0
DWIDTH 12 0
BBX 7 12 3 0
BITMAP
38
44
82
82
44
38
44
82
82
82
44
38
ENDCHAR
STARTCHAR nine
ENCODING 57
SWIDTH 642 0
DWIDTH 12 0
BBX 7 12 3 0
BITMAP
38
44
82
82
82
46
3A
02
04
04
18
E0
ENDCHAR
STARTCHAR colon
ENCODING 58
SWIDTH 642 0
DWIDTH 12 0
BBX 1 9 6 0
BITMAP
80
80
00
00
00
00
00
80
80
ENDCHAR
STARTCHAR semicolon
ENCODING 59
SWIDTH 642 0
DWIDTH 12 0
BBX 2 10 5 -1
BITMAP
40
40
00
00
00
00
00
40
40
80
ENDCHAR
STARTCHAR less
ENCODING 60
SWIDTH 642 0
DWIDTH 12 0
BBX 5 9 4 1
BITMAP
08
10
20
40
80
40
20
10
08
ENDCHAR
STARTCHAR equal
ENCODING 61
SWIDTH 642 0
DWIDTH 12 0
BBX 9 5 2 3
BITMAP
FF80
0000
0000
0000
FF80
ENDCHAR
STARTCHAR greater
ENCODING 62
SWIDTH 642 0
DWIDTH 12 0
BBX 5 9 4 1
BITMAP
80
40
20
10
08
10
20
40
80
ENDCHAR
STARTCHAR question
ENCODING 63
SWIDTH 642 0
DWIDTH 12 0
BBX 7 12 3 0
BITMAP
7C
82
82
02
04
08
10
10
00
00
10
10
ENDCHAR
STARTCHAR at
ENCODING 64
SWIDTH 642 0
DWIDTH 12 0
BBX 9 14 2 -2
BITMAP
3E00
4100
8080
8080
8F80
9080
9080
9080
9080
9080
8F80
8000
4000
3E00
ENDCHAR
STARTCHAR A
ENCODING 65
SWIDTH 642 0
DWIDTH 12 0
BBX 11 12 1 0
BITMAP
1C00
0400
0400
0A00
0A00
1100
1100
2080
3F80
4040
4040
E0E0
ENDCHAR
STARTCHAR B
ENCODING 66
SWIDTH 642 0
DWIDTH 12 0
BBX 11 12 1 0
BITMAP
FF00
2080
2040
2040
2080
3F80
2040
2020
2020
2020
2040
FF80
ENDCHAR
STARTCHAR C
ENCODING 67
SWIDTH 642 0
DWIDTH 12 0
BBX 10 12 2 0
BITMAP
1F40
60C0
4040
8000
8000
8000
8000
8000
8000
4040
60C0
1F00
ENDCHAR
STARTCHAR D
ENCODING 68
SWIDTH 642 0
DWIDTH 12 0
BBX 11 12 1 0
BITMAP
FF00
20C0
2040
2020
2020
2020
2020
2020
2020
2040
20C0
FF00
ENDCHAR
STARTCHAR E
ENCODING 69
SWIDTH 642 0
DWIDTH 12 0
BBX 10 12 1 0
BITMAP
FFC0
2040
2040
2000
2100
3F00
2100
2000
2000
2040
2040
FFC0
ENDCHAR
STARTCHAR F
ENCODING 70
SWIDTH 642 0
DWIDTH 12 0
BBX 10 12 2 0
BITMAP
FFC0
2040
2040
2000
2100
3F00
2100
2000
2000
2000
2000
FC00
ENDCHAR
STARTCHAR G
ENCODING 71
SWIDTH 642 0
DWIDTH 12 0
BBX 11 12 1 0
BITMAP
1F40
60C0
4040
8000
8000
8000
83E0
8040
8040
4040
60C0
1F00
ENDCHAR
STARTCHAR H
ENCODING 72
SWIDTH 642 0
DWIDTH 12 0
BBX 11 12 1 0
BITMAP
E0E0
4040
4040
4040
4040
7FC0
4040
4040
4040
4040
4040
E0E0
ENDCHAR
STARTCHAR I
ENCODING 73
SWIDTH 642 0
DWIDTH 12 0
BBX 7 12 3 0
BITMAP
FE
10
10
10
10
10
10
10
10
10
10
FE
ENDCHAR
STARTCHAR J
ENCODING 74
SWIDTH 642 0
DWIDTH 12 0
BBX 9 12 2 0
BITMAP
1F80
0200
0200
0200
0200
0200
0200
0200
0200
8200
8200
7C00
ENDCHAR
STARTCHAR K
ENCODING 75
SWIDTH 642 0
DWIDTH 12 0
BBX 11 12 1 0
BITMAP
E3C0
4100
4200
4400
4800
5000
6800
4400
4200
4100
4080
E060
ENDCHAR
STARTCHAR L
ENCODING 76
SWIDTH 642 0
DWIDTH 12 0
BBX 10 12 1 0
BITMAP
FC00
2000
2000
2000
2000
2000
2000
2000
2000
2040
2040
FFC0
ENDCHAR
STARTCHAR M
ENCODING 77
SWIDTH 642 0
DWIDTH 12 0
BBX 11 12 1 0
BITMAP
C060
60C0
60C0
5140
5140
4A40
4A40
4440
4440
4040
4040
E0E0
ENDCHAR
STARTCHAR N
ENCODING 78
SWIDTH 642 0
DWIDTH 12 0
BBX 11 12 1 0
BITMAP
C1E0
6040
6040
5040
4840
4440
4440
4240
4140
40C0
40C0
F040
ENDCHAR
STARTCHAR O
ENCODING 79
SWIDTH 642 0
DWIDTH 12 0
BBX 11 12 1 0
BITMAP
1F00
60C0
4040
8020
8020
8020
8020
8020
8020
4040
60C0
1F00
ENDCHAR
STARTCHAR P
ENCODING 80
SWIDTH 642 0
DWIDTH 12 0
BBX 10 12 1 0
BITMAP
FF00
2080
2040
2040
2040
2080
3F00
2000
2000
2000
2000
FC00
ENDCHAR
STARTCHAR Q
ENCODING 81
SWIDTH 642 0
DWIDTH 12 0
BBX 11 15 1 -3
BITMAP
1F00
60C0
4040
8020
8020
8020
8020
8020
8020
4040
60C0
1F00
1000
3880
4700
ENDCHAR
STARTCHAR R
ENCODING 82
SWIDTH 642 0
DWIDTH 12 0
BBX 11 12 1 0
BITMAP
FF00
2080
2040
2040
2040
2080
3F00
2200
2100
2080
2040
F820
ENDCHAR
STARTCHAR S
ENCODING 83
SWIDTH 642 0
DWIDTH 12 0
BBX 9 12 2 0
BITMAP
3E80
4180
8080
8000
4000
3800
0600
0100
0080
8080
C100
BE00
ENDCHAR
STARTCHAR T
ENCODING 84
SWIDTH 642 0
DWIDTH 12 0
BBX 11 12 1 0
BITMAP
FFE0
8420
8420
0400
0400
0400
0400
0400
0400
0400
0400
1F00
ENDCHAR
STARTCHAR U
ENCODING 85
SWIDTH 642 0
DWIDTH 12 0
BBX 11 12 1 0
BITMAP
E0E0
4040
4040
4040
4040
4040
4040
4040
4040
4040
2080
1F00
ENDCHAR
STARTCHAR V
ENCODING 86
SWIDTH 642 0
DWIDTH 12 0
BBX 11 12 1 0
BITMAP
E0E0
4040
4040
2080
2080
1100
1100
1100
0A00
0A00
0400
0400
ENDCHAR
STARTCHAR W
ENCODING 87
SWIDTH 642 0
DWIDTH 12 0
BBX 11 12 1 0
BITMAP
C060
8020
8020
8420
8420
4A40
4A40
5140
5140
2080
2080
2080
ENDCHAR
STARTCHAR X
ENCODING 88
SWIDTH 642 0
DWIDTH 12 0
BBX 11 12 1 0
BITMAP
F1E0
4040
2080
1100
0A00
0400
0400
0A00
1100
2080
4040
F1E0
ENDCHAR
STARTCHAR Y
ENCODING 89
SWIDTH 642 0
DWIDTH 12 0
BBX 11 12 1 0
BITMAP
E0E0
4040
4040
2080
1100
0A00
0400
0400
0400
0400
0400
1F00
ENDCHAR
STARTCHAR Z
ENCODING 90
SWIDTH 642 0
DWIDTH 12 0
BBX 9 12 2 0
BITMAP
FF80
8080
8100
0200
0400
0800
0800
1000
2000
4080
8080
FF80
ENDCHAR
STARTCHAR bracketleft
ENCODING 91
SWIDTH 642 0
DWIDTH 12 0
BBX 4 15 5 -3
BITMAP
F0
80
80
80
80
80
80
80
80
80
80
80
80
80
F0
ENDCHAR
STARTCHAR backslash
ENCODING 92
SWIDTH 642 0
DWIDTH 12 0
BBX 11 11 1 0
BITMAP
8000
4000
2000
1000
0800
0400
0200
0100
0080
0040
0020
ENDCHAR
STARTCHAR bracketright
ENCODING 93
SWIDTH 642 0
DWIDTH 12 0
BBX 4 15 4 -3
BITMAP
F0
10
10
10
10
10
10
10
10
10
10
10
10
10
F0
ENDCHAR
STARTCHAR asciicircum
ENCODING 94
SWIDTH 642 0
DWIDTH 12 0
BBX 5 3 4 10
BITMAP
20
50
88
ENDCHAR
STARTCHAR underscore
ENCODING 95
SWIDTH 642 0
DWIDTH 12 0
BBX 12 1 0 -2
BITMAP
FFF0
ENDCHAR
STARTCHAR grave
ENCODING 96
SWIDTH 642 0
DWIDTH 12 0
BBX 3 3 5 10
BITMAP
80
40
20
ENDCHAR
STARTCHAR a
ENCODING 97
SWIDTH 642 0
DWIDTH 12 0
BBX 9 9 2 0
BITMAP
3E00
4100
0100
1F00
6100
8100
8100
8100
7E80
ENDCHAR
STARTCHAR b
ENCODING 98
SWIDTH 642 0
DWIDTH 12 0
BBX 9 13 2 0
BITMAP
C000
4000
4000
4000
5E00
6100
4080
4080
4080
4080
4080
6100
DE00
ENDCHAR
STARTCHAR c
ENCODING 99
SWIDTH 642 0
DWIDTH 12 0
BBX 8 9 3 0
BITMAP
3D
43
81
80
80
80
80
41
3E
ENDCHAR
STARTCHAR d
ENCODING 100
SWIDTH 642 0
DWIDTH 12 0
BBX 9 13 2 0
BITMAP
0300
0100
0100
0100
3D00
4300
8100
8100
8100
8100
8100
4300
3D80
ENDCHAR
STARTCHAR e
ENCODING 101
SWIDTH 642 0
DWIDTH 12 0
BBX 9 9 2 0
BITMAP
3E00
4100
8080
8080
FF80
8000
8080
4100
3E00
ENDCHAR
STARTCHAR f
ENCODING 102
SWIDTH 642 0
DWIDTH 12 0
BBX 6 13 4 0
BITMAP
1C
20
20
20
FC
20
20
20
20
20
20
20
FC
ENDCHAR
STARTCHAR g
ENCODING 103
SWIDTH 642 0
DWIDTH 12 0
BBX 9 13 2 -4
BITMAP
3D80
4300
8100
8100
8100
8100
8100
4300
3D00
0100
0100
0200
7C00
ENDCHAR
STARTCHAR h
ENCODING 104
SWIDTH 642 0
DWIDTH 12 0
BBX 9 13 2 0
BITMAP
C000
4000
4000
4000
5E00
6100
4100
4100
4100
4100
4100
4100
E380
ENDCHAR
STARTCHAR i
ENCODING 105
SWIDTH 642 0
DWIDTH 12 0
BBX 7 13 3 0
BITMAP
10
10
00
00
70
10
10
10
10
10
10
10
FE
ENDCHAR
STARTCHAR j
ENCODING 106
SWIDTH 642 0
DWIDTH 12 0
BBX 5 17 3 -4
BITMAP
08
08
00
00
F8
08
08
08
08
08
08
08
08
08
08
10
E0
ENDCHAR
STARTCHAR k
ENCODING 107
SWIDTH 642 0
DWIDTH 12 0
BBX 10 13 2 0
BITMAP
C000
4000
4000
4000
4780
4200
4400
4800
5800
6400
4200
4100
C0C0
ENDCHAR
STARTCHAR l
ENCODING 108
SWIDTH 642 0
DWIDTH 12 0
BBX 7 13 3 0
BITMAP
70
10
10
10
10
10
10
10
10
10
10
10
FE
ENDCHAR
STARTCHAR m
ENCODING 109
SWIDTH 642 0
DWIDTH 12 0
BBX 11 9 1 0
BITMAP
D980
6640
4440
4440
4440
4440
4440
4440
E660
ENDCHAR
STARTCHAR n
ENCODING 110
SWIDTH 642 0
DWIDTH 12 0
BBX 9 9 2 0
BITMAP
DE00
6100
4100
4100
4100
4100
4100
4100
E380
ENDCHAR
STARTCHAR o
ENCODING 111
SWIDTH 642 0
DWIDTH 12 0
BBX 9 9 2 0
BITMAP
3E00
4100
8080
8080
8080
8080
8080
4100
3E00
ENDCHAR
STARTCHAR p
ENCODING 112
SWIDTH 642 0
DWIDTH 12 0
BBX 9 13 2 -4
BITMAP
DE00
6100
4080
4080
4080
4080
4080
6100
5E00
4000
4000
4000
F000
ENDCHAR
STARTCHAR q
ENCODING 113
SWIDTH 642 0
DWIDTH 12 0
BBX 9 13 2 -4
BITMAP
3D80
4300
8100
8100
8100
8100
8100
4300
3D00
0100
0100
0100
0780
ENDCHAR
STARTCHAR r
ENCODING 114
SWIDTH 642 0
DWIDTH 12 0
BBX 9 9 2 0
BITMAP
EF00
3080
2000
2000
2000
2000
2000
2000
FC00
ENDCHAR
STARTCHAR s
ENCODING 115
SWIDTH 642 0
DWIDTH 12 0
BBX 9 9 2 0
BITMAP
3E80
4180
8080
4000
3E00
0100
8080
C100
BE00
ENDCHAR
STARTCHAR t
ENCODING 116
SWIDTH 642 0
DWIDTH 12 0
BBX 7 12 3 0
BITMAP
20
20
20
FE
20
20
20
20
20
22
22
1C
ENDCHAR
STARTCHAR u
ENCODING 117
SWIDTH 642 0
DWIDTH 12 0
BBX 9 9 2 0
BITMAP
C300
4100
4100
4100
4100
4100
4100
4300
3D80
ENDCHAR
STARTCHAR v
ENCODING 118
SWIDTH 642 0
DWIDTH 12 0
BBX 11 9 1 0
BITMAP
E0E0
4040
2080
2080
1100
1100
0A00
0A00
0400
ENDCHAR
STARTCHAR w
ENCODING 119
SWIDTH 642 0
DWIDTH 12 0
BBX 11 9 1 0
BITMAP
E0E0
4040
4440
4440
2A80
2A80
1100
1100
1100
ENDCHAR
STARTCHAR x
ENCODING 120
SWIDTH 642 0
DWIDTH 12 0
BBX 11 9 1 0
BITMAP
F1E0
2080
1100
0A00
0400
0A00
1100
2080
F1E0
ENDCHAR
STARTCHAR y
ENCODING 121
SWIDTH 642 0
DWIDTH 12 0
BBX 11 13 1 -4
BITMAP
E0E0
4040
2080
2080
1100
1100
0A00
0A00
0400
0400
0800
0800
3C00
ENDCHAR
STARTCHAR z
ENCODING 122
SWIDTH 642 0
DWIDTH 12 0
BBX 9 9 2 0
BITMAP
FF80
8100
8200
0400
0800
1000
2080
4080
FF80
ENDCHAR
STARTCHAR braceleft
ENCODING 123
SWIDTH 642 0
DWIDTH 12 0
BBX 5 15 4 -3
BITMAP
18
20
20
20
20
20
20
C0
20
20
20
20
20
20
18
ENDCHAR
STARTCHAR bar
ENCODING 124
SWIDTH 642 0
DWIDTH 12 0
BBX 1 16 6 -4
BITMAP
80
80
80
80
80
80
80
80
80
80
80
80
80
80
80
80
ENDCHAR
STARTCHAR braceright
ENCODING 125
SWIDTH 642 0
DWIDTH 12 0
BBX 5 15 4 -3
BITMAP
C0
20
20
20
20
20
20
18
20
20
20
20
20
20
C0
ENDCHAR
STARTCHAR asciitilde
ENCODING 126
SWIDTH 642 0
DWIDTH 12 0
BBX 9 3 2 10
BITMAP
7080
8880
8700
ENDCHAR
STARTCHAR not
ENCODING 127
SWIDTH 642 0
DWIDTH 12 0
BBX 7 3 2 2
BITMAP
FE
02
02
ENDCHAR
STARTCHAR afii10051
ENCODING 128
SWIDTH 642 0
DWIDTH 12 0
BBX 9 13 1 0
BITMAP
F800
A800
2000
2000
2F00
3080
2080
2080
2080
2080
2080
2480
7300
ENDCHAR
STARTCHAR afii10052
ENCODING 129
SWIDTH 642 0
DWIDTH 12 0
BBX 10 14 1 0
BITMAP
0C00
0800
FFC0
2040
2040
2000
2000
2000
2000
2000
2000
2000
2000
FC00
ENDCHAR
STARTCHAR cedilla
ENCODING 130
SWIDTH 642 0
DWIDTH 12 0
BBX 3 4 5 -2
BITMAP
40
60
20
C0
ENDCHAR
STARTCHAR afii10100
ENCODING 131
SWIDTH 642 0
DWIDTH 12 0
BBX 9 12 2 0
BITMAP
0600
0400
0800
FF80
2080
2080
2000
2000
2000
2000
2000
F800
ENDCHAR
STARTCHAR quotedblbase
ENCODING 132
SWIDTH 642 0
DWIDTH 12 0
BBX 7 3 2 -2
BITMAP
66
66
CC
ENDCHAR
STARTCHAR ellipsis
ENCODING 133
SWIDTH 642 0
DWIDTH 12 0
BBX 10 2 1 0
BITMAP
CCC0
CCC0
ENDCHAR
STARTCHAR dagger
ENCODING 134
SWIDTH 642 0
DWIDTH 12 0
BBX 9 12 2 0
BITMAP
0800
1C00
0800
4900
FF80
4900
0800
0800
1C00
0800
0800
0800
ENDCHAR
STARTCHAR section
ENCODING 135
SWIDTH 642 0
DWIDTH 12 0
BBX 5 13 2 -1
BITMAP
70
88
80
80
70
88
88
88
70
08
08
88
70
ENDCHAR
STARTCHAR Euro
ENCODING 136
SWIDTH 642 0
DWIDTH 12 0
BBX 11 12 1 0
BITMAP
0FA0
3060
2020
4000
FE00
4000
FE00
4000
4000
2020
3060
0F80
ENDCHAR
STARTCHAR dieresis
ENCODING 137
SWIDTH 642 0
DWIDTH 12 0
BBX 6 2 3 10
BITMAP
CC
CC
ENDCHAR
STARTCHAR afii10058
ENCODING 138
SWIDTH 642 0
DWIDTH 12 0
BBX 11 12 1 0
BITMAP
3F80
1100
1100
1100
1100
11C0
1120
1120
1120
1120
9120
63C0
ENDCHAR
STARTCHAR guilsinglleft
ENCODING 139
SWIDTH 642 0
DWIDTH 12 0
BBX 5 9 4 1
BITMAP
08
10
20
40
C0
40
20
10
08
ENDCHAR
STARTCHAR afii10059
ENCODING 140
SWIDTH 642 0
DWIDTH 12 0
BBX 11 12 1 0
BITMAP
E380
4100
4100
4100
4100
7FC0
4120
4120
4120
4120
4120
E3C0
ENDCHAR
STARTCHAR afii10061
ENCODING 141
SWIDTH 642 0
DWIDTH 12 0
BBX 11 14 1 0
BITMAP
0C00
0800
F3C0
4100
4200
4400
4800
5000
6800
4400
4200
4100
4080
E060
ENDCHAR
STARTCHAR afii10060
ENCODING 142
SWIDTH 642 0
DWIDTH 12 0
BBX 10 13 1 0
BITMAP
F800
A800
2000
2000
2F00
3080
2080
2080
2080
2080
2080
2080
71C0
ENDCHAR
STARTCHAR afii10145
ENCODING 143
SWIDTH 642 0
DWIDTH 12 0
BBX 11 14 1 -2
BITMAP
F1E0
4040
4040
4040
4040
4040
4040
4040
4040
4040
4040
FFE0
0E00
0400
ENDCHAR
STARTCHAR afii10099
ENCODING 144
SWIDTH 642 0
DWIDTH 12 0
BBX 8 14 1 -2
BITMAP
20
F8
20
20
20
3C
22
21
21
21
21
72
04
08
ENDCHAR
STARTCHAR quoteleft
ENCODING 145
SWIDTH 642 0
DWIDTH 12 0
BBX 3 3 6 9
BITMAP
C0
C0
60
ENDCHAR
STARTCHAR quoteright
ENCODING 146
SWIDTH 642 0
DWIDTH 12 0
BBX 3 3 3 9
BITMAP
60
60
C0
ENDCHAR
STARTCHAR quotedblleft
ENCODING 147
SWIDTH 642 0
DWIDTH 12 0
BBX 7 3 3 9
BITMAP
CC
CC
66
ENDCHAR
STARTCHAR quotedblright
ENCODING 148
SWIDTH 642 0
DWIDTH 12 0
BBX 7 3 2 9
BITMAP
66
66
CC
ENDCHAR
STARTCHAR bullet
ENCODING 149
SWIDTH 642 0
DWIDTH 12 0
BBX 5 5 4 2
BITMAP
70
F8
F8
F8
70
ENDCHAR
STARTCHAR endash
ENCODING 150
SWIDTH 642 0
DWIDTH 12 0
BBX 8 1 1 4
BITMAP
FF
ENDCHAR
STARTCHAR emdash
ENCODING 151
SWIDTH 642 0
DWIDTH 12 0
BBX 12 1 0 4
BITMAP
FFF0
ENDCHAR
STARTCHAR sterling
ENCODING 152
SWIDTH 642 0
DWIDTH 12 0
BBX 9 12 1 0
BITMAP
1E00
2200
2200
2000
2000
2000
7800
2000
2000
2000
7080
8F80
ENDCHAR
STARTCHAR periodcentered
ENCODING 153
SWIDTH 642 0
DWIDTH 12 0
BBX 2 2 5 5
BITMAP
C0
C0
ENDCHAR
STARTCHAR afii10106
ENCODING 154
SWIDTH 642 0
DWIDTH 12 0
BBX 11 9 1 0
BITMAP
3F80
1100
1100
1100
11C0
1120
1120
9120
63C0
ENDCHAR
STARTCHAR guilsinglright
ENCODING 155
SWIDTH 642 0
DWIDTH 12 0
BBX 5 9 4 1
BITMAP
80
40
20
10
18
10
20
40
80
ENDCHAR
STARTCHAR afii10107
ENCODING 156
SWIDTH 642 0
DWIDTH 12 0
BBX 10 9 2 0
BITMAP
E700
4200
4200
4200
7F80
4240
4240
4240
E780
ENDCHAR
STARTCHAR afii10109
ENCODING 157
SWIDTH 642 0
DWIDTH 12 0
BBX 10 11 2 0
BITMAP
0C00
0800
F380
4200
4400
4800
5800
6400
4200
4100
E0C0
ENDCHAR
STARTCHAR afii10108
ENCODING 158
SWIDTH 642 0
DWIDTH 12 0
BBX 9 12 1 0
BITMAP
2000
F800
2000
2000
2000
3E00
2100
2100
2100
2100
2100
7380
ENDCHAR
STARTCHAR afii10193
ENCODING 159
SWIDTH 642 0
DWIDTH 12 0
BBX 9 11 2 -2
BITMAP
E380
4100
4100
4100
4100
4100
4100
4100
FF80
1C00
0800
ENDCHAR
STARTCHAR space
ENCODING 160
SWIDTH 642 0
DWIDTH 12 0
BBX 0 0 0 0
BITMAP
ENDCHAR
STARTCHAR afii10196
ENCODING 161
SWIDTH 642 0
DWIDTH 12 0
BBX 11 9 1 0
BITMAP
C000
4060
20A0
20A0
1100
1100
0A00
0A00
0400
ENDCHAR
STARTCHAR afii10194
ENCODING 162
SWIDTH 642 0
DWIDTH 12 0
BBX 11 12 1 0
BITMAP
7000
1000
1000
FE00
9200
9000
1F80
1040
1020
1020
1040
7F80
ENDCHAR
STARTCHAR afii10071
ENCODING 163
SWIDTH 642 0
DWIDTH 12 0
BBX 9 11 2 0
BITMAP
6300
0000
3E00
4100
8080
8080
FF80
8000
8080
4100
3E00
ENDCHAR
STARTCHAR afii10101
ENCODING 164
SWIDTH 642 0
DWIDTH 12 0
BBX 9 9 2 0
BITMAP
3E00
4100
8080
8000
FC00
8000
8080
4100
3E00
ENDCHAR
STARTCHAR afii10102
ENCODING 165
SWIDTH 642 0
DWIDTH 12 0
BBX 9 9 2 0
BITMAP
3E80
4180
8080
4000
3E00
0100
8080
C100
BE00
ENDCHAR
STARTCHAR afii10103
ENCODING 166
SWIDTH 642 0
DWIDTH 12 0
BBX 7 13 3 0
BITMAP
10
10
00
00
70
10
10
10
10
10
10
10
FE
ENDCHAR
STARTCHAR afii10104
ENCODING 167
SWIDTH 642 0
DWIDTH 12 0
BBX 7 13 3 0
BITMAP
48
48
00
00
70
10
10
10
10
10
10
10
FE
ENDCHAR
STARTCHAR afii10105
ENCODING 168
SWIDTH 642 0
DWIDTH 12 0
BBX 5 17 3 -4
BITMAP
08
08
00
00
F8
08
08
08
08
08
08
08
08
08
08
10
E0
ENDCHAR
STARTCHAR registered
ENCODING 169
SWIDTH 642 0
DWIDTH 12 0
BBX 11 13 1 -1
BITMAP
3F80
4040
9F20
90A0
90A0
9F20
9320
9120
90A0
90A0
8020
4040
3F80
ENDCHAR
STARTCHAR trademark
ENCODING 170
SWIDTH 642 0
DWIDTH 12 0
BBX 10 5 1 7
BITMAP
FC40
26C0
2540
2440
2440
ENDCHAR
STARTCHAR guillemotleft
ENCODING 171
SWIDTH 642 0
DWIDTH 12 0
BBX 8 9 2 1
BITMAP
09
12
24
48
90
48
24
12
09
ENDCHAR
STARTCHAR afii10195
ENCODING 172
SWIDTH 642 0
DWIDTH 12 0
BBX 9 9 2 0
BITMAP
3E00
4100
8080
8080
FF80
8080
8080
4100
3E00
ENDCHAR
STARTCHAR afii10098
ENCODING 173
SWIDTH 642 0
DWIDTH 12 0
BBX 9 11 2 0
BITMAP
0080
0080
FF80
2000
2000
2000
2000
2000
2000
2000
F800
ENDCHAR
STARTCHAR afii10110
ENCODING 174
SWIDTH 642 0
DWIDTH 12 0
BBX 11 16 1 -4
BITMAP
1100
0E00
0000
E0E0
4040
2040
2080
1080
1100
0900
0A00
0600
0400
0400
4800
3000
ENDCHAR
STARTCHAR acute
ENCODING 175
SWIDTH 642 0
DWIDTH 12 0
BBX 3 4 6 8
BITMAP
20
40
40
80
ENDCHAR
STARTCHAR degree
ENCODING 176
SWIDTH 642 0
DWIDTH 12 0
BBX 5 5 4 8
BITMAP
70
88
88
88
70
ENDCHAR
STARTCHAR afii10148
ENCODING 177
SWIDTH 642 0
DWIDTH 12 0
BBX 11 12 1 0
BITMAP
C000
4060
40A0
20A0
2080
1100
1100
1100
0A00
0A00
0400
0400
ENDCHAR
STARTCHAR afii10146
ENCODING 178
SWIDTH 642 0
DWIDTH 12 0
BBX 11 14 1 0
BITMAP
7000
1000
FE00
9200
9200
1000
1000
1F80
1040
1020
1020
1020
1040
7F80
ENDCHAR
STARTCHAR afii10023
ENCODING 179
SWIDTH 642 0
DWIDTH 12 0
BBX 10 14 1 0
BITMAP
6180
0000
FFC0
2040
2040
2000
2100
3F00
2100
2000
2000
2040
2040
FFC0
ENDCHAR
STARTCHAR afii10053
ENCODING 180
SWIDTH 642 0
DWIDTH 12 0
BBX 10 12 2 0
BITMAP
1F00
60C0
4040
8000
8000
FF00
8000
8000
8000
4040
60C0
1F00
ENDCHAR
STARTCHAR afii10054
ENCODING 181
SWIDTH 642 0
DWIDTH 12 0
BBX 9 12 2 0
BITMAP
3E80
4180
8080
8000
4000
3800
0600
0100
0080
8080
C100
BE00
ENDCHAR
STARTCHAR afii10055
ENCODING 182
SWIDTH 642 0
DWIDTH 12 0
BBX 7 12 3 0
BITMAP
FE
10
10
10
10
10
10
10
10
10
10
FE
ENDCHAR
STARTCHAR afii10056
ENCODING 183
SWIDTH 642 0
DWIDTH 12 0
BBX 7 14 3 0
BITMAP
6C
00
FE
10
10
10
10
10
10
10
10
10
10
FE
ENDCHAR
STARTCHAR afii10057
ENCODING 184
SWIDTH 642 0
DWIDTH 12 0
BBX 9 12 2 0
BITMAP
1F80
0200
0200
0200
0200
0200
0200
0200
0200
8200
8200
7C00
ENDCHAR
STARTCHAR afii61352
ENCODING 185
SWIDTH 642 0
DWIDTH 12 0
BBX 11 12 1 0
BITMAP
E6C0
4320
6320
62C0
5200
53E0
4A00
4A00
4600
4600
4200
E700
ENDCHAR
STARTCHAR cent
ENCODING 186
SWIDTH 642 0
DWIDTH 12 0
BBX 7 11 3 -1
BITMAP
10
3A
56
92
90
90
90
90
52
3C
10
ENDCHAR
STARTCHAR guillemotright
ENCODING 187
SWIDTH 642 0
DWIDTH 12 0
BBX 8 9 2 1
BITMAP
90
48
24
12
09
12
24
48
90
ENDCHAR
STARTCHAR afii10147
ENCODING 188
SWIDTH 642 0
DWIDTH 12 0
BBX 11 12 1 0
BITMAP
1F00
60C0
4040
8020
8020
FFE0
8020
8020
8020
4040
60C0
1F00
ENDCHAR
STARTCHAR afii10050
ENCODING 189
SWIDTH 642 0
DWIDTH 12 0
BBX 10 14 1 0
BITMAP
0040
0040
FFC0
2000
2000
2000
2000
2000
2000
2000
2000
2000
2000
FC00
ENDCHAR
STARTCHAR afii10062
ENCODING 190
SWIDTH 642 0
DWIDTH 12 0
BBX 11 14 1 0
BITMAP
1100
0E00
E0E0
4040
2080
2080
1100
1100
0A00
0A00
0400
0400
4800
3000
ENDCHAR
STARTCHAR copyright
ENCODING 191
SWIDTH 642 0
DWIDTH 12 0
BBX 11 13 1 -1
BITMAP
3F80
4040
8020
8F20
90A0
9020
9020
9020
90A0
8F20
8020
4040
3F80
ENDCHAR
STARTCHAR afii10096
ENCODING 192
SWIDTH 642 0
DWIDTH 12 0
BBX 11 9 1 0
BITMAP
E380
4440
4820
4820
7820
4820
4820
4440
E380
ENDCHAR
STARTCHAR afii10065
ENCODING 193
SWIDTH 642 0
DWIDTH 12 0
BBX 9 9 2 0
BITMAP
3E00
4100
0100
1F00
6100
8100
8100
8100
7E80
ENDCHAR
STARTCHAR afii10066
ENCODING 194
SWIDTH 642 0
DWIDTH 12 0
BBX 9 13 2 0
BITMAP
0180
3E00
4000
8000
BE00
C100
8080
8080
8080
8080
8080
4100
3E00
ENDCHAR
STARTCHAR afii10088
ENCODING 195
SWIDTH 642 0
DWIDTH 12 0
BBX 10 11 2 -2
BITMAP
E380
4100
4100
4100
4100
4100
4100
4100
FFC0
0040
0040
ENDCHAR
STARTCHAR afii10069
ENCODING 196
SWIDTH 642 0
DWIDTH 12 0
BBX 10 11 1 -2
BITMAP
7FC0
2080
2080
2080
2080
2080
2080
4080
FFC0
8040
8040
ENDCHAR
STARTCHAR afii10070
ENCODING 197
SWIDTH 642 0
DWIDTH 12 0
BBX 9 9 2 0
BITMAP
3E00
4100
8080
8080
FF80
8000
8080
4100
3E00
ENDCHAR
STARTCHAR afii10086
ENCODING 198
SWIDTH 642 0
DWIDTH 12 0
BBX 9 15 2 -4
BITMAP
1C00
0800
3E00
4900
8880
8880
8880
8880
8880
4900
3E00
0800
0800
0800
1C00
ENDCHAR
STARTCHAR afii10068
ENCODING 199
SWIDTH 642 0
DWIDTH 12 0
BBX 9 9 2 0
BITMAP
FF80
2080
2080
2000
2000
2000
2000
2000
F800
ENDCHAR
STARTCHAR afii10087
ENCODING 200
SWIDTH 642 0
DWIDTH 12 0
BBX 9 9 2 0
BITMAP
E380
4100
2200
1400
0800
1400
2200
4100
E380
ENDCHAR
STARTCHAR afii10074
ENCODING 201
SWIDTH 642 0
DWIDTH 12 0
BBX 9 9 2 0
BITMAP
E380
4100
4300
4500
4900
5100
6100
4100
E380
ENDCHAR
STARTCHAR afii10075
ENCODING 202
SWIDTH 642 0
DWIDTH 12 0
BBX 9 12 2 0
BITMAP
2200
1C00
0000
E380
4100
4300
4500
4900
5100
6100
4100
E380
ENDCHAR
STARTCHAR afii10076
ENCODING 203
SWIDTH 642 0
DWIDTH 12 0
BBX 10 9 2 0
BITMAP
E380
4200
4400
4800
5800
6400
4200
4100
E0C0
ENDCHAR
STARTCHAR afii10077
ENCODING 204
SWIDTH 642 0
DWIDTH 12 0
BBX 10 9 1 0
BITMAP
3FC0
1080
1080
1080
1080
1080
1080
9080
61C0
ENDCHAR
STARTCHAR afii10078
ENCODING 205
SWIDTH 642 0
DWIDTH 12 0
BBX 11 9 1 0
BITMAP
C060
60C0
5140
4A40
4440
4440
4040
4040
E0E0
ENDCHAR
STARTCHAR afii10079
ENCODING 206
SWIDTH 642 0
DWIDTH 12 0
BBX 9 9 2 0
BITMAP
E380
4100
4100
4100
7F00
4100
4100
4100
E380
ENDCHAR
STARTCHAR afii10080
ENCODING 207
SWIDTH 642 0
DWIDTH 12 0
BBX 9 9 2 0
BITMAP
3E00
4100
8080
8080
8080
8080
8080
4100
3E00
ENDCHAR
STARTCHAR afii10081
ENCODING 208
SWIDTH 642 0
DWIDTH 12 0
BBX 9 9 2 0
BITMAP
FF80
4100
4100
4100
4100
4100
4100
4100
E380
ENDCHAR
STARTCHAR afii10097
ENCODING 209
SWIDTH 642 0
DWIDTH 12 0
BBX 10 9 1 0
BITMAP
3FC0
4080
4080
4080
3F80
0880
1080
2080
E3C0
ENDCHAR
STARTCHAR afii10082
ENCODING 210
SWIDTH 642 0
DWIDTH 12 0
BBX 9 13 2 -4
BITMAP
DE00
6100
4080
4080
4080
4080
4080
6100
5E00
4000
4000
4000
F000
ENDCHAR
STARTCHAR afii10083
ENCODING 211
SWIDTH 642 0
DWIDTH 12 0
BBX 8 9 3 0
BITMAP
3D
43
81
80
80
80
80
41
3E
ENDCHAR
STARTCHAR afii10084
ENCODING 212
SWIDTH 642 0
DWIDTH 12 0
BBX 9 9 2 0
BITMAP
FF80
8880
0800
0800
0800
0800
0800
0800
3E00
ENDCHAR
STARTCHAR afii10085
ENCODING 213
SWIDTH 642 0
DWIDTH 12 0
BBX 11 13 1 -4
BITMAP
E0E0
4040
2040
2080
1080
1100
0900
0A00
0600
0400
0400
4800
3000
ENDCHAR
STARTCHAR afii10072
ENCODING 214
SWIDTH 642 0
DWIDTH 12 0
BBX 11 9 1 0
BITMAP
6EC0
2480
2480
1500
0E00
1500
2480
4440
CE60
ENDCHAR
STARTCHAR afii10067
ENCODING 215
SWIDTH 642 0
DWIDTH 12 0
BBX 9 9 2 0
BITMAP
FE00
4100
4100
4100
7F00
4080
4080
4080
FF00
ENDCHAR
STARTCHAR afii10094
ENCODING 216
SWIDTH 642 0
DWIDTH 12 0
BBX 9 9 2 0
BITMAP
E000
4000
4000
7E00
4100
4080
4080
4100
FE00
ENDCHAR
STARTCHAR afii10093
ENCODING 217
SWIDTH 642 0
DWIDTH 12 0
BBX 11 9 1 0
BITMAP
E0E0
4040
4040
7C40
4240
4140
4140
4240
FCE0
ENDCHAR
STARTCHAR afii10073
ENCODING 218
SWIDTH 642 0
DWIDTH 12 0
BBX 9 9 2 0
BITMAP
BE00
C100
8080
0100
1E00
0100
0080
C100
3E00
ENDCHAR
STARTCHAR afii10090
ENCODING 219
SWIDTH 642 0
DWIDTH 12 0
BBX 11 9 1 0
BITMAP
EEE0
4440
4440
4440
4440
4440
4440
4440
FFE0
ENDCHAR
STARTCHAR afii10095
ENCODING 220
SWIDTH 642 0
DWIDTH 12 0
BBX 9 9 2 0
BITMAP
3E00
4100
8080
0080
1F80
0080
8080
4100
3E00
ENDCHAR
STARTCHAR afii10091
ENCODING 221
SWIDTH 642 0
DWIDTH 12 0
BBX 11 11 1 -2
BITMAP
EEE0
4440
4440
4440
4440
4440
4440
4440
FFE0
0020
0020
ENDCHAR
STARTCHAR afii10089
ENCODING 222
SWIDTH 642 0
DWIDTH 12 0
BBX 9 9 2 0
BITMAP
E380
4100
4100
4100
4300
3D00
0100
0100
0380
ENDCHAR
STARTCHAR afii10092
ENCODING 223
SWIDTH 642 0
DWIDTH 12 0
BBX 11 9 1 0
BITMAP
F800
9000
9000
1F80
1040
1020
1020
1040
7F80
ENDCHAR
STARTCHAR afii10048
ENCODING 224
SWIDTH 642 0
DWIDTH 12 0
BBX 11 12 1 0
BITMAP
E380
4440
4820
4820
4820
7820
4820
4820
4820
4820
4440
E380
ENDCHAR
STARTCHAR afii10017
ENCODING 225
SWIDTH 642 0
DWIDTH 12 0
BBX 11 12 1 0
BITMAP
0400
0400
0400
0A00
0A00
1100
1100
3F80
2080
4040
4040
E0E0
ENDCHAR
STARTCHAR afii10018
ENCODING 226
SWIDTH 642 0
DWIDTH 12 0
BBX 11 12 1 0
BITMAP
FFC0
2040
2000
2000
2000
3F80
2040
2020
2020
2020
2040
FF80
ENDCHAR
STARTCHAR afii10040
ENCODING 227
SWIDTH 642 0
DWIDTH 12 0
BBX 11 14 1 -2
BITMAP
F1E0
4040
4040
4040
4040
4040
4040
4040
4040
4040
4040
FFE0
0020
0020
ENDCHAR
STARTCHAR afii10021
ENCODING 228
SWIDTH 642 0
DWIDTH 12 0
BBX 11 14 1 -2
BITMAP
7FE0
2040
2040
2040
2040
2040
2040
2040
2040
2040
4040
FFE0
8020
8020
ENDCHAR
STARTCHAR afii10022
ENCODING 229
SWIDTH 642 0
DWIDTH 12 0
BBX 10 12 1 0
BITMAP
FFC0
2040
2040
2000
2100
3F00
2100
2000
2000
2040
2040
FFC0
ENDCHAR
STARTCHAR afii10038
ENCODING 230
SWIDTH 642 0
DWIDTH 12 0
BBX 11 13 1 0
BITMAP
0E00
0400
1F00
64C0
4440
8420
8420
8420
4440
64C0
1F00
0400
0E00
ENDCHAR
STARTCHAR afii10020
ENCODING 231
SWIDTH 642 0
DWIDTH 12 0
BBX 10 12 1 0
BITMAP
FFC0
2040
2040
2000
2000
2000
2000
2000
2000
2000
2000
FC00
ENDCHAR
STARTCHAR afii10039
ENCODING 232
SWIDTH 642 0
DWIDTH 12 0
BBX 11 12 1 0
BITMAP
F1E0
4040
2080
1100
0A00
0400
0400
0A00
1100
2080
4040
F1E0
ENDCHAR
STARTCHAR afii10026
ENCODING 233
SWIDTH 642 0
DWIDTH 12 0
BBX 11 12 1 0
BITMAP
E0E0
4040
4040
40C0
4140
4240
4440
4840
5040
6040
4040
E0E0
ENDCHAR
STARTCHAR afii10027
ENCODING 234
SWIDTH 642 0
DWIDTH 12 0
BBX 11 14 1 0
BITMAP
1100
0E00
E0E0
4040
4040
40C0
4140
4240
4440
4840
5040
6040
4040
E0E0
ENDCHAR
STARTCHAR afii10028
ENCODING 235
SWIDTH 642 0
DWIDTH 12 0
BBX 11 12 1 0
BITMAP
E3C0
4100
4200
4400
4800
5000
6800
4400
4200
4100
4080
E060
ENDCHAR
STARTCHAR afii10029
ENCODING 236
SWIDTH 642 0
DWIDTH 12 0
BBX 11 12 1 0
BITMAP
3FE0
1040
1040
1040
1040
1040
1040
1040
1040
1040
9040
61E0
ENDCHAR
STARTCHAR afii10030
ENCODING 237
SWIDTH 642 0
DWIDTH 12 0
BBX 11 12 1 0
BITMAP
C060
60C0
60C0
5140
5140
4A40
4A40
4440
4440
4040
4040
E0E0
ENDCHAR
STARTCHAR afii10031
ENCODING 238
SWIDTH 642 0
DWIDTH 12 0
BBX 11 12 1 0
BITMAP
E0E0
4040
4040
4040
4040
7FC0
4040
4040
4040
4040
4040
E0E0
ENDCHAR
STARTCHAR afii10032
ENCODING 239
SWIDTH 642 0
DWIDTH 12 0
BBX 11 12 1 0
BITMAP
1F00
60C0
4040
8020
8020
8020
8020
8020
8020
4040
60C0
1F00
ENDCHAR
STARTCHAR afii10033
ENCODING 240
SWIDTH 642 0
DWIDTH 12 0
BBX 11 12 1 0
BITMAP
FFE0
4040
4040
4040
4040
4040
4040
4040
4040
4040
4040
E0E0
ENDCHAR
STARTCHAR afii10049
ENCODING 241
SWIDTH 642 0
DWIDTH 12 0
BBX 10 12 1 0
BITMAP
1FC0
2080
4080
4080
4080
2080
1F80
0880
1080
1080
2080
C3C0
ENDCHAR
STARTCHAR afii10034
ENCODING 242
SWIDTH 642 0
DWIDTH 12 0
BBX 10 12 1 0
BITMAP
FF00
2080
2040
2040
2040
2080
3F00
2000
2000
2000
2000
FC00
ENDCHAR
STARTCHAR afii10035
ENCODING 243
SWIDTH 642 0
DWIDTH 12 0
BBX 10 12 2 0
BITMAP
1F40
60C0
4040
8000
8000
8000
8000
8000
8000
4040
60C0
1F00
ENDCHAR
STARTCHAR afii10036
ENCODING 244
SWIDTH 642 0
DWIDTH 12 0
BBX 11 12 1 0
BITMAP
FFE0
8420
8420
0400
0400
0400
0400
0400
0400
0400
0400
1F00
ENDCHAR
STARTCHAR afii10037
ENCODING 245
SWIDTH 642 0
DWIDTH 12 0
BBX 11 12 1 0
BITMAP
E0E0
4040
2080
2080
1100
1100
0A00
0A00
0400
0400
4800
3000
ENDCHAR
STARTCHAR afii10024
ENCODING 246
SWIDTH 642 0
DWIDTH 12 0
BBX 11 12 1 0
BITMAP
CE60
4440
4440
2480
1500
0E00
1500
2480
2480
4440
4440
CE60
ENDCHAR
STARTCHAR afii10019
ENCODING 247
SWIDTH 642 0
DWIDTH 12 0
BBX 11 12 1 0
BITMAP
FF00
2080
2040
2040
2080
3F80
2040
2020
2020
2020
2040
FF80
ENDCHAR
STARTCHAR afii10046
ENCODING 248
SWIDTH 642 0
DWIDTH 12 0
BBX 10 12 2 0
BITMAP
E000
4000
4000
4000
4000
7F00
4080
4040
4040
4040
4080
FF00
ENDCHAR
STARTCHAR afii10045
ENCODING 249
SWIDTH 642 0
DWIDTH 12 0
BBX 11 12 1 0
BITMAP
E0E0
4040
4040
4040
4040
7C40
4240
4140
4140
4140
4240
FCE0
ENDCHAR
STARTCHAR afii10025
ENCODING 250
SWIDTH 642 0
DWIDTH 12 0
BBX 9 12 2 0
BITMAP
BC00
C200
8100
0100
0200
1E00
0100
0080
0080
8080
C100
BE00
ENDCHAR
STARTCHAR afii10042
ENCODING 251
SWIDTH 642 0
DWIDTH 12 0
BBX 11 12 1 0
BITMAP
EEE0
4440
4440
4440
4440
4440
4440
4440
4440
4440
4440
FFE0
ENDCHAR
STARTCHAR afii10047
ENCODING 252
SWIDTH 642 0
DWIDTH 12 0
BBX 10 12 2 0
BITMAP
3E00
C180
8080
0040
0040
3FC0
0040
0040
0040
8080
C180
3E00
ENDCHAR
STARTCHAR afii10043
ENCODING 253
SWIDTH 642 0
DWIDTH 12 0
BBX 11 14 1 -2
BITMAP
EEE0
4440
4440
4440
4440
4440
4440
4440
4440
4440
4440
FFE0
0020
0020
ENDCHAR
STARTCHAR afii10041
ENCODING 254
SWIDTH 642 0
DWIDTH 12 0
BBX 10 12 1 0
BITMAP
F3C0
4080
4080
4080
4080
4180
4280
3C80
0080
0080
0080
03C0
ENDCHAR
STARTCHAR afii10044
ENCODING 255
SWIDTH 642 0
DWIDTH 12 0
BBX 11 12 1 0
BITMAP
F800
9000
9000
1000
1000
1F80
1040
1020
1020
1020
1040
7F80
ENDCHAR
ENDFONT
